PathFileType	4	(X/Y/Z)	C:/Users/opensim2020/Desktop/walking_exp_matlab/subject01_walking08_straight_03.trc																																																																																																																															
DataRate	CameraRate	NumFrames	NumMarkers	Units	OrigDataRate	OrigDataStartFrame	OrigNumFrames																																																																																																																											
100	100	4	43	mm	100	2791	326																																																																																																																											
Frame#	Time	LFHD			RFHD			LBHD			RBHD			C7			T10			CLAV			STRN			RBAK			LSHO			LUPA			LELB			LFRM			LWRA			LWRB			LFIN			RSHO			RUPA			RELB			RFRM			RWRA			RWRB			RFIN			LASI			RASI			LPSI			RPSI			LTHI			LKNE			LTIB			LANK			LHEE			LTOE			RTHI			RKNE			RTIB			RANK			RHEE			RTOE			*39			*40			*41			*42		
		X1	Y1	Z1	X2	Y2	Z2	X3	Y3	Z3	X4	Y4	Z4	X5	Y5	Z5	X6	Y6	Z6	X7	Y7	Z7	X8	Y8	Z8	X9	Y9	Z9	X10	Y10	Z10	X11	Y11	Z11	X12	Y12	Z12	X13	Y13	Z13	X14	Y14	Z14	X15	Y15	Z15	X16	Y16	Z16	X17	Y17	Z17	X18	Y18	Z18	X19	Y19	Z19	X20	Y20	Z20	X21	Y21	Z21	X22	Y22	Z22	X23	Y23	Z23	X24	Y24	Z24	X25	Y25	Z25	X26	Y26	Z26	X27	Y27	Z27	X28	Y28	Z28	X29	Y29	Z29	X30	Y30	Z30	X31	Y31	Z31	X32	Y32	Z32	X33	Y33	Z33	X34	Y34	Z34	X35	Y35	Z35	X36	Y36	Z36	X37	Y37	Z37	X38	Y38	Z38	X39	Y39	Z39	X40	Y40	Z40	X41	Y41	Z41	X42	Y42	Z42	X43	Y43	Z43
																																																																																																																																		
82	0.81	-464.44803	1676.11682	-993.55878	-445.37744	1686.94287	-881.43475	-566.81274	1605.48352	-978.07611	-549.43311	1614.83496	-858.70618	-570.11743	1432.25928	-932.81659	-605.28149	1139.19482	-922.25006	-426.9324	1364.50098	-940.55011	-384.31085	1208.01929	-948.7265	-619.62982	1238.17664	-850.37872	-495.27472	1393.2262	-1098.20435	-537.47394	1208.65283	-1178.77234	-560.62195	1061.02429	-1176.74219	-536.52515	950.9917	-1203.68018	-472.53036	826.04626	-1188.36475	-527.79639	828.9281	-1212.65271	-489.51962	752.80347	-1221.90503	-479.46655	1388.79919	-785.414	-507.17282	1184.70923	-678.80804	-490.74759	1059.80164	-676.50476	-431.42072	952.3125	-654.14746	-324.84253	862.76929	-685.65198	-363.46365	850.74243	-643.60406	-305.91293	787.95343	-650.55701	-440.34955	936.64734	-1040.77271	-429.93286	929.97888	-822.92792	-624.05975	943.41907	-983.65558	-617.97797	946.39264	-839.34485	-394.49597	620.48676	-1117.87524	-368.14258	487.77213	-1105.1792	-405.12607	304.30963	-1117.75598	-405.49762	81.99522	-1076.30188	-437.79108	46.1005	-1016.34314	-264.31192	56.89161	-1103.83484	-506.31332	597.41351	-782.0199	-514.83704	439.46603	-813.20117	-580.80109	274.42197	-810.47369	-619.42542	73.10159	-869.51752	-669.85394	36.53303	-921.31378	-480.03793	33.43289	-872.21808	-466.71008	1715.93774	-903.01508	1973.13379	1023.76489	-3101.88965	2012.53259	1021.95453	-3140.71094	NaN	NaN	NaN
83	0.82	-458.01877	1675.48779	-994.72644	-438.77957	1686.3562	-882.63666	-560.67322	1605.19165	-979.11096	-542.91229	1614.59998	-859.7478	-564.11346	1431.74719	-933.61914	-599.46185	1138.76636	-922.88367	-420.95596	1363.79492	-941.37042	-378.52197	1207.32056	-949.34119	-613.79156	1237.84155	-850.98364	-489.50037	1392.49097	-1099.04517	-532.52704	1207.92578	-1179.24609	-556.28094	1060.43213	-1176.9635	-532.91211	950.31787	-1203.99585	-469.70276	824.93188	-1188.87415	-525.03296	828.19946	-1212.93018	-487.35361	751.7876	-1222.35242	-473.38449	1388.32532	-786.22681	-500.91129	1184.46216	-679.23016	-484.37509	1059.55969	-676.5697	-424.45508	952.29486	-654.55621	-317.38617	863.46515	-686.34052	-355.89423	851.18396	-644.16949	-297.80029	788.88629	-651.32294	-434.28339	936.25073	-1041.21216	-424.87091	929.05841	-823.12994	-618.15411	942.9502	-984.34534	-612.4212	946.06427	-840.04169	-389.86115	619.56012	-1118.28345	-362.63971	487.26199	-1105.28589	-393.68689	302.83112	-1118.76953	-385.29138	80.23577	-1078.06982	-416.9646	43.57199	-1018.48926	-243.10707	59.21846	-1104.23413	-503.05399	597.17017	-782.37567	-512.99243	439.18259	-813.21277	-579.78424	274.52881	-810.63739	-619.49292	73.38773	-869.51215	-669.53699	36.77229	-921.33636	-480.01685	33.43555	-872.2005	-460.09268	1715.45361	-904.21094	1973.09351	1023.67938	-3101.79224	2012.51367	1021.93842	-3140.65112	NaN	NaN	NaN
84	0.83	-451.56625	1674.79395	-995.92871	-432.29327	1685.77051	-884.00079	-554.30273	1604.71936	-980.09937	-536.48438	1614.24414	-860.93524	-558.08258	1431.25659	-934.50525	-593.61133	1138.24158	-923.59515	-414.99643	1363.14697	-942.29291	-372.59259	1206.69897	-950.06647	-607.90417	1237.44641	-851.69232	-483.65207	1391.75879	-1100.01331	-527.47815	1207.18481	-1179.84668	-551.76483	1059.86914	-1177.30457	-529.12341	949.64301	-1204.38391	-466.5831	823.86176	-1189.50305	-522.04645	827.4187	-1213.27917	-484.8743	750.70856	-1222.77197	-467.29865	1387.92334	-787.2229	-494.75946	1184.21973	-679.78857	-478.23502	1059.28369	-676.92749	-417.57608	952.2536	-655.08734	-310.13254	864.09644	-687.14819	-348.46982	851.54169	-644.94147	-290.11639	789.51544	-652.18213	-428.0694	935.80414	-1041.71667	-419.23462	928.4563	-823.53796	-612.12842	942.41815	-985.07892	-606.54578	945.6051	-840.79559	-385.2861	618.52271	-1118.81201	-357.4971	486.50748	-1105.6991	-382.4158	301.64401	-1119.8313	-365.66269	79.1562	-1079.59351	-396.74976	41.70325	-1020.42487	-222.32451	62.0968	-1104.47998	-499.52036	596.86938	-782.76953	-510.99796	438.78036	-813.8067	-578.57788	274.71252	-810.67633	-619.4021	73.66397	-869.54645	-669.68768	37.49771	-921.42676	-479.96817	33.42379	-872.13953	-453.44064	1714.85376	-905.5708	1973.12219	1022.82397	-3101.88232	2012.52002	1021.95679	-3140.729	NaN	NaN	NaN
85	0.84	-445.07114	1674.14734	-997.33704	-425.60184	1685.22876	-885.35266	-548.09058	1604.41345	-981.33636	-530.00879	1613.99792	-862.0434	-552.02356	1430.66663	-935.51306	-587.68353	1137.73242	-924.3465	-408.89944	1362.46216	-943.35962	-366.71396	1206.02356	-950.85352	-601.94141	1236.99231	-852.54834	-477.73245	1390.99878	-1101.00903	-522.30121	1206.45422	-1180.55322	-547.0625	1059.28247	-1177.75586	-525.133	948.91949	-1204.86853	-463.23727	822.81158	-1190.16345	-518.75555	826.63824	-1213.65906	-482.07449	749.70361	-1223.29114	-461.25159	1387.43066	-788.18634	-488.66144	1183.85742	-680.48279	-471.86688	1058.93994	-677.42944	-410.73563	952.17218	-655.61633	-303.20264	864.36243	-688.19989	-341.24283	851.70551	-645.63593	-282.52536	790.12872	-652.96802	-421.68408	935.24139	-1042.22498	-413.5806	927.8269	-823.89423	-605.94934	941.89075	-985.88129	-601.00769	945.22601	-841.72113	-380.59912	617.43726	-1119.44202	-352.26978	485.82993	-1106.22681	-371.33267	300.58524	-1120.80444	-346.76819	78.40105	-1081.1261	-377.13092	40.26262	-1022.19208	-202.51071	65.59519	-1104.49426	-496.26208	596.61865	-783.13055	-508.69235	438.66803	-813.52399	-577.24689	274.94128	-810.80884	-619.21533	73.9333	-869.60089	-669.57349	37.94818	-921.55756	-479.94928	33.34623	-872.12006	-446.77823	1714.29907	-906.93091	1973.20959	1023.51666	-3102.01636	2012.57764	1022.0376	-3140.72876	NaN	NaN	NaN
